<svg width="910" height="982" viewBox="0 0 910 982" fill="none" xmlns="http://www.w3.org/2000/svg">
<g clip-path="url(#clip0_6_158)">
<path d="M332.782 207.764L398.551 276.698C403.806 282.206 412.528 282.412 418.043 277.15L451.771 244.97C457.279 239.715 457.491 230.987 452.235 225.479L386.466 156.545C381.204 151.03 372.468 150.824 366.961 156.079L333.232 188.259C327.719 193.521 327.52 202.25 332.782 207.764Z" fill="#F8AFED" fill-opacity="0.3"/>
<path d="M205.876 460.53L140.107 391.596C134.846 386.081 126.11 385.875 120.602 391.13L86.8736 423.31C81.3591 428.571 81.1617 437.301 86.4231 442.815L152.192 511.749C157.447 517.257 166.17 517.463 171.684 512.201L205.413 480.021C210.919 474.765 211.131 466.037 205.876 460.53Z" fill="#F8AFED" fill-opacity="0.3"/>
<path d="M588.637 482.033L651.051 547.45C656.306 552.958 665.027 553.163 670.542 547.901L697.22 522.448C702.735 517.187 702.953 508.452 697.699 502.944L635.285 437.527C630.03 432.02 621.295 431.829 615.781 437.09L589.103 462.544C583.587 467.806 583.382 476.526 588.637 482.033Z" fill="#F8AFED" fill-opacity="0.3"/>
<path d="M464.472 725.465L402.058 660.047C396.803 654.54 388.075 654.342 382.568 659.597L355.875 685.065C350.375 690.312 350.155 699.048 355.409 704.554L417.823 769.971C423.078 775.479 431.814 775.67 437.314 770.423L464.007 744.955C469.515 739.7 469.726 730.972 464.472 725.465Z" fill="#F8AFED" fill-opacity="0.3"/>
<path d="M476.572 494.032C450.705 466.921 431.233 472.18 415.42 487.267C399.608 502.353 393.439 521.557 419.306 548.669C445.174 575.782 478.952 585.517 494.765 570.43C510.577 555.344 502.439 521.144 476.572 494.032Z" fill="#F8AFED" fill-opacity="0.3"/>
<path d="M658.132 741.658C663.448 736.586 666.639 729.984 667.507 723.169C668.31 717.081 667.208 710.759 664.279 705.029L746.404 626.675L679.623 556.681L613.346 619.916C607.476 610.406 602.08 601.789 597.828 595.255C582.625 571.965 549.948 522.732 536.279 502.174C538.888 498.191 541.948 493.615 544.739 489.812C549.016 483.993 552.497 477.17 554.589 469.472L554.597 469.437C556.143 463.672 556.893 457.458 556.629 450.963C556.248 441.215 553.609 431.009 548.57 420.762L548.578 420.783C543.56 410.501 536.188 400.171 526.221 389.725L465.767 326.362C459.034 319.305 452.107 313.752 445.028 309.577C438.833 305.929 432.529 303.393 426.37 301.773C415.529 298.935 405.336 299.021 396.467 300.015L396.502 300.01C389.829 300.741 383.839 301.991 378.661 302.995C374.731 303.771 371.193 304.445 368.246 304.828C366.001 305.108 364.046 305.237 362.393 305.226L362.441 305.219C360.024 305.176 358.49 304.862 357.091 304.336C355.654 303.725 354.522 303.081 352.569 301.089C337.346 285.134 324.111 271.262 315.168 261.888L344.646 233.764L268.624 154.084L89.4931 324.992L101.475 337.55L165.516 404.672L194.994 376.548C203.931 385.914 217.166 399.786 232.374 415.726C234.352 417.857 234.936 419.038 235.451 420.516C235.872 421.784 236.089 423.206 236.073 425.351C236.037 427.192 235.782 429.472 235.282 432.135L235.274 432.197C234.421 436.881 232.802 442.782 231.228 449.526L231.212 449.595C230.057 454.702 228.93 460.379 228.382 466.563L228.39 466.542C227.524 475.879 228.096 486.453 231.785 497.434C235.33 507.979 241.724 518.523 251.251 528.766L251.398 529.034L252.327 530.008L312.781 593.37C321.644 602.66 330.491 609.884 339.404 615.24C346.076 619.261 352.768 622.217 359.383 624.144C369.37 627.039 379.152 627.534 388.137 626.021C397.113 624.516 405.129 621.065 411.883 616.575C415.843 613.937 420.551 611.102 424.657 608.705C444.552 623.324 492.174 658.269 514.712 674.535C521.052 679.103 529.412 684.906 538.635 691.202L472.337 754.456L539.118 824.45L621.243 746.096C626.815 749.262 633.098 750.694 639.266 750.16L639.204 750.151C646.058 749.607 652.809 746.737 658.132 741.658ZM678.806 591.538L711.548 625.856L644.035 690.271C639.87 683.288 634.805 674.777 629.355 665.707C626.013 660.14 622.536 654.362 619.032 648.568L678.806 591.538ZM290.882 251L290.868 250.985L185.249 351.756L185.263 351.771L166.345 369.82L124.353 325.808L267.808 188.939L309.8 232.951L290.882 251ZM539.942 789.582L507.2 755.265L566.982 698.227C581.734 708.14 596.524 717.935 607.463 725.161L539.942 789.582ZM637.174 725.596C635.726 725.715 634.261 725.361 632.982 724.504L632.947 724.483L632.898 724.446C632.898 724.446 632.167 723.964 630.799 723.07L629.615 722.285C627.055 720.613 623.143 718.034 618.291 714.829C609.043 708.734 596.379 700.343 583.17 691.508C581.385 690.318 579.581 689.11 577.788 687.915C573.636 685.128 569.479 682.335 565.389 679.571C561.245 676.779 557.155 674 553.237 671.33C543.8 664.898 535.33 659.009 529.135 654.536C514.823 644.203 490.05 626.106 468.885 610.595C458.312 602.844 448.622 595.717 441.58 590.571C438.057 587.987 435.216 585.878 433.221 584.429C431.247 582.984 430.162 582.175 430.162 582.175L426.413 579.425L422.331 581.65C422.302 581.663 418.896 583.528 414.191 586.254C409.487 588.963 403.519 592.54 398.232 596.049C394.549 598.507 390.392 600.367 385.791 601.364C382.355 602.117 378.653 602.404 374.658 602.06C368.682 601.531 361.988 599.609 354.609 595.546C347.222 591.503 339.169 585.311 330.619 576.349L270.165 512.987C264.794 507.357 261.009 502.039 258.362 497.016C256.062 492.627 254.609 488.445 253.726 484.374C252.225 477.251 252.513 470.38 253.6 463.423C254.437 458.226 255.734 453.011 257.031 447.769C257.992 443.824 258.953 439.879 259.667 435.847C260.196 432.817 260.6 429.769 260.695 426.651C260.867 421.98 260.384 417.133 258.73 412.356C257.079 407.565 254.276 402.935 250.242 398.721L205.898 352.243L290.381 271.638L334.725 318.116C338.881 322.486 343.526 325.561 348.394 327.406C352.635 329.034 356.989 329.727 361.225 329.854C364.925 329.962 368.572 329.658 372.176 329.166C378.456 328.306 384.623 326.875 390.785 325.775C395.403 324.953 399.982 324.289 404.551 324.099C411.408 323.829 418.158 324.542 425.236 327.293C432.312 330.058 439.814 334.889 447.93 343.382L508.384 406.745C515.978 414.704 521.402 422.182 525.118 429.063C527.907 434.207 529.725 439.029 530.787 443.488C532.388 450.173 532.326 456.056 531.202 461.31C530.057 466.57 527.829 471.208 524.887 475.209C521.134 480.325 517.273 486.126 514.352 490.691C511.411 495.262 509.387 498.578 509.365 498.612L506.958 502.577L509.529 506.451C509.529 506.451 510.287 507.575 511.622 509.627C521.137 523.926 560.256 582.8 577.162 608.715C581.937 616.025 588.419 626.404 595.397 637.816C597.057 640.522 598.761 643.306 600.468 646.105C603.03 650.327 605.632 654.603 608.221 658.881C614.752 669.713 621.171 680.423 626.638 689.584C629.04 693.593 631.244 697.313 633.203 700.603C634.94 703.536 636.491 706.127 637.78 708.305C639.07 710.482 640.098 712.242 640.833 713.496L640.967 713.721C641.715 714.976 642.122 715.644 642.122 715.644L642.15 715.701L642.177 715.729C642.973 717.047 643.258 718.527 643.07 719.969C642.884 721.409 642.22 722.761 641.124 723.833C639.997 724.885 638.622 725.477 637.174 725.596Z" fill="#F8AFED" fill-opacity="0.3"/>
<path d="M667.515 723.134C667.516 723.147 667.508 723.154 667.507 723.169C667.507 723.182 667.507 723.182 667.506 723.197L667.515 723.134Z" fill="#F8AFED" fill-opacity="0.3"/>
</g>
<defs>
<clipPath id="clip0_6_158">
<rect width="694" height="694" fill="white" transform="translate(430.122) rotate(46.3458)"/>
</clipPath>
</defs>
</svg>
